<?xml version="1.0" encoding="utf-8"?>
<!-- Generator: Adobe Illustrator 26.0.3, SVG Export Plug-In . SVG Version: 6.00 Build 0)  -->
<svg version="1.1" id="Capa_1" xmlns="http://www.w3.org/2000/svg" xmlns:xlink="http://www.w3.org/1999/xlink" x="0px" y="0px"
	 viewBox="0 0 801.5 490.8" style="enable-background:new 0 0 801.5 490.8;" xml:space="preserve">
<g>
	<polygon points="50.1,391.3 100,441.7 50.1,492.1 0.1,441.7 	"/>
</g>
<g>
	<polygon points="150.1,391.3 200,441.7 150.1,492.1 100.1,441.7 	"/>
</g>
<g>
	<polygon points="250.9,391.3 300.8,441.7 250.9,492.1 200.9,441.7 	"/>
</g>
<g>
	<polygon points="350.9,391.3 400.8,441.7 350.9,492.1 300.9,441.7 	"/>
</g>
<g>
	<polygon points="451.7,391.3 501.6,441.7 451.7,492.1 401.7,441.7 	"/>
</g>
<g>
	<polygon points="551.7,391.3 601.6,441.7 551.7,492.1 501.7,441.7 	"/>
</g>
<g>
	<polygon points="652.5,391.3 702.4,441.7 652.5,492.1 602.5,441.7 	"/>
</g>
<g>
	<polygon points="752.5,391.3 802.4,441.7 752.5,492.1 702.5,441.7 	"/>
</g>
<rect x="0.1" y="-0.3" width="803.4" height="441.9"/>
</svg>
